<svg xmlns="http://www.w3.org/2000/svg" width="40" height="40" viewBox="0 0 40 40">
  <metadata><?xpacket begin="﻿" id="W5M0MpCehiHzreSzNTczkc9d"?>
<x:xmpmeta xmlns:x="adobe:ns:meta/" x:xmptk="Adobe XMP Core 5.6-c140 79.160451, 2017/05/06-01:08:21        ">
   <rdf:RDF xmlns:rdf="http://www.w3.org/1999/02/22-rdf-syntax-ns#">
      <rdf:Description rdf:about=""/>
   </rdf:RDF>
</x:xmpmeta>
                                                                                                    
                                                                                                    
                                                                                                    
                                                                                                    
                                                                                                    
                                                                                                    
                                                                                                    
                                                                                                    
                                                                                                    
                                                                                                    
                                                                                                    
                                                                                                    
                                                                                                    
                                                                                                    
                                                                                                    
                                                                                                    
                                                                                                    
                                                                                                    
                                                                                                    
                                                                                                    
                           
<?xpacket end="w"?></metadata>
<defs>
    <style>
      .cls-1 {
        fill: #666;
        fill-rule: evenodd;
      }
    </style>
  </defs>
  <path class="cls-1" d="M20,26.007A6.007,6.007,0,1,1,26.007,20,6,6,0,0,1,20,26.007M20,3a17,17,0,0,0,0,34h8V34H20A14.48,14.48,0,0,1,6,20,14.479,14.479,0,0,1,20,6,14.479,14.479,0,0,1,34,20v2a3.571,3.571,0,0,1-2.95,3.1,2.748,2.748,0,0,1-2.55-2.67L29,20c0-4.693-4.308-8.5-9-8.5A8.5,8.5,0,1,0,26.018,26a6.3,6.3,0,0,0,5.032,2.5A5.973,5.973,0,0,0,37,22.431V20A17.007,17.007,0,0,0,20,3"/>
</svg>
