<svg xmlns="http://www.w3.org/2000/svg" width="24" height="24" viewBox="0 0 24 24">
  <metadata><?xpacket begin="﻿" id="W5M0MpCehiHzreSzNTczkc9d"?>
<x:xmpmeta xmlns:x="adobe:ns:meta/" x:xmptk="Adobe XMP Core 5.6-c140 79.160451, 2017/05/06-01:08:21        ">
   <rdf:RDF xmlns:rdf="http://www.w3.org/1999/02/22-rdf-syntax-ns#">
      <rdf:Description rdf:about=""/>
   </rdf:RDF>
</x:xmpmeta>
                                                                                                    
                                                                                                    
                                                                                                    
                                                                                                    
                                                                                                    
                                                                                                    
                                                                                                    
                                                                                                    
                                                                                                    
                                                                                                    
                                                                                                    
                                                                                                    
                                                                                                    
                                                                                                    
                                                                                                    
                                                                                                    
                                                                                                    
                                                                                                    
                                                                                                    
                                                                                                    
                           
<?xpacket end="w"?></metadata>
<defs>
    <style>
      .cls-1 {
        fill: #aaa;
        fill-rule: evenodd;
      }
    </style>
  </defs>
  <path id="Forma_1" data-name="Forma 1" class="cls-1" d="M19.085,16.875a1.818,1.818,0,0,0-1.046-.863l-2.847-1.268-1.368-1.116-2.2,2.114h0l0.948,6.132a0.079,0.079,0,0,1-.015.06l-0.992,1.313a0.085,0.085,0,0,1-.136,0l-0.991-1.313a0.078,0.078,0,0,1-.015-0.06l0.948-6.132h0l-2.2-2.114L7.807,14.744,4.96,16.012a1.834,1.834,0,0,0-1.046.863S0.821,24,2.5,24h18C22.18,24,19.085,16.875,19.085,16.875Zm0.2-9.769a0.16,0.16,0,0,0,.108-0.056,0.15,0.15,0,0,0,.034-0.114l-0.1-.789L19.263,5.6a0.157,0.157,0,0,0-.172-0.135H18.968l0-1.849,0.064-.023,0.215-.075a0.439,0.439,0,0,0,0-.835L11.656,0.025a0.473,0.473,0,0,0-.312,0L3.75,2.68a0.439,0.439,0,0,0,0,.835L6.557,4.5a6.437,6.437,0,0,0-.28,2.069c0.049,4.4,2.69,7.023,5.134,7.023,2.415,0,5.084-2.624,5.133-7.023a6.5,6.5,0,0,0-.262-2.013l2.041-.713,0,1.623H18.2a0.157,0.157,0,0,0-.171.135l-0.16,1.34a0.15,0.15,0,0,0,.035.114,0.157,0.157,0,0,0,.108.056m-6.6,5.414c-2.132,0-3.6-2.415-3.9-4.83-0.274-2.233,3.064-2.337,3.258-.953a4.686,4.686,0,0,1-.388,1.057c0.283,0.867,4.961-2.831,4.929-.105C15.288,9.614,13.442,12.52,11.411,12.52Z"/>
</svg>
