<svg height="511pt" viewBox="-28 1 511 511.99998" width="511pt" xmlns="http://www.w3.org/2000/svg"><path d="m456.054688 258.191406-68.648438-137.300781h-318.257812l-68.648438 137.300781 227.777344 253.808594zm-296.804688 12.566406h138.054688l-69.027344 172.476563zm110.042969 150.664063 60.296875-150.664063h74.914062zm144.546875-180.636719h-70.371094l34.816406-71.113281zm-59.71875-89.921875-37.453125 76.496094-58.167969-76.496094zm-64.898438 89.921875h-121.890625l60.945313-80.148437zm-91.167968-89.921875-58.167969 76.496094-37.453125-76.496094zm-119.785157 18.808594 34.816407 71.113281h-70.371094zm-26.21875 101.085937h74.914063l60.296875 150.664063zm0 0"/><path d="m207.078125 315.722656 21.195313-21.195312 21.195312 21.195312-21.195312 21.191406zm0 0"/><path d="m213.289062 0h29.976563v60.945312h-29.976563zm0 0"/><path d="m143.5 29.90625 42.386719 42.386719-21.191407 21.195312-42.390624-42.386719zm0 0"/><path d="m313.054688 29.902344 21.191406 21.195312-42.386719 42.386719-21.195313-21.191406zm0 0"/></svg>