<svg xmlns="http://www.w3.org/2000/svg" width="24" height="24" viewBox="0 0 24 24">
  <metadata><?xpacket begin="﻿" id="W5M0MpCehiHzreSzNTczkc9d"?>
<x:xmpmeta xmlns:x="adobe:ns:meta/" x:xmptk="Adobe XMP Core 5.6-c140 79.160451, 2017/05/06-01:08:21        ">
   <rdf:RDF xmlns:rdf="http://www.w3.org/1999/02/22-rdf-syntax-ns#">
      <rdf:Description rdf:about=""/>
   </rdf:RDF>
</x:xmpmeta>
                                                                                                    
                                                                                                    
                                                                                                    
                                                                                                    
                                                                                                    
                                                                                                    
                                                                                                    
                                                                                                    
                                                                                                    
                                                                                                    
                                                                                                    
                                                                                                    
                                                                                                    
                                                                                                    
                                                                                                    
                                                                                                    
                                                                                                    
                                                                                                    
                                                                                                    
                                                                                                    
                           
<?xpacket end="w"?></metadata>
<defs>
    <style>
      .cls-1 {
        fill: #3b4499;
        fill-rule: evenodd;
      }
    </style>
  </defs>
  <path class="cls-1" d="M13.174,24H11.826l-0.487-.055A11.27,11.27,0,0,1,6.163,22.08a11.371,11.371,0,0,1-4.984-7.6C1.1,14.047,1.059,13.608,1,13.173V11.825c0.035-.3.064-0.591,0.107-0.885a11.273,11.273,0,0,1,3.215-6.5A11.24,11.24,0,0,1,12.25,1.006a10.9,10.9,0,0,1,5.34,1.24,0.339,0.339,0,0,0,.49-0.085c0.233-.263.5-0.5,0.742-0.751A0.7,0.7,0,0,1,19.557,1.2a0.687,0.687,0,0,1,.477.6C20.07,2,20.1,2.206,20.138,2.413c0.07,0.41.142,0.82,0.219,1.265,0.088-.084.148-0.138,0.205-0.2q1.112-1.111,2.223-2.224a0.7,0.7,0,0,1,.685-0.242,0.671,0.671,0,0,1,.3,1.161c-0.671.684-1.352,1.358-2.031,2.035-0.131.131-.267,0.258-0.421,0.406a1.218,1.218,0,0,0,.158.055c0.553,0.095,1.105.191,1.659,0.279a0.729,0.729,0,0,1,.666.487,0.716,0.716,0,0,1-.242.767c-0.238.228-.452,0.482-0.7,0.692a0.371,0.371,0,0,0-.082.546,11.046,11.046,0,0,1,1.17,6.2A11.21,11.21,0,0,1,21.4,19.766a11.33,11.33,0,0,1-6.914,4.054C14.049,23.9,13.61,23.941,13.174,24ZM16.847,3.387a10.013,10.013,0,0,0-12.515,3.1A10.144,10.144,0,0,0,19.378,19.955a9.95,9.95,0,0,0,2.195-11.84,1.5,1.5,0,0,1-.15.223c-0.569.574-1.137,1.15-1.717,1.713a0.336,0.336,0,0,0-.095.389,7.234,7.234,0,0,1-1.2,6.5,7.289,7.289,0,0,1-8.1,2.621,7.149,7.149,0,0,1-5.157-6.231,6.953,6.953,0,0,1,2.123-6.07A7.134,7.134,0,0,1,14.187,5.3a0.953,0.953,0,0,0,1.082-.32C15.761,4.43,16.307,3.927,16.847,3.387ZM12.382,18.562a6.128,6.128,0,0,0,2.494-.489,6.063,6.063,0,0,0,3.3-7.7,0.289,0.289,0,0,0-.268-0.216,10.357,10.357,0,0,1-1.192-.21,0.835,0.835,0,0,0-1.042.323,1.2,1.2,0,0,1-.253.254,0.188,0.188,0,0,0-.034.268,5.678,5.678,0,0,1,.424,1.171,3.362,3.362,0,1,1-5.081-2.327,3.263,3.263,0,0,1,3.433-.053,0.227,0.227,0,0,0,.34-0.039c0.173-.2.372-0.369,0.549-0.562a0.29,0.29,0,0,0,.065-0.212c-0.091-.584-0.188-1.166-0.3-1.747a0.291,0.291,0,0,0-.158-0.182,5.926,5.926,0,0,0-3.33-.292A6.063,6.063,0,0,0,12.382,18.562Zm0.983-7.875a2.012,2.012,0,0,0-2.53.671,2.035,2.035,0,0,0,.277,2.6,2.005,2.005,0,0,0,2.644.111,1.968,1.968,0,0,0,.551-2.418c-0.061.058-.121,0.113-0.178,0.17-0.381.38-.755,0.769-1.145,1.14a0.669,0.669,0,0,1-1.141-.324,0.69,0.69,0,0,1,.231-0.667C12.5,11.551,12.922,11.129,13.365,10.687ZM18.91,3.244c-0.082.076-.142,0.129-0.2,0.186-0.8.8-1.6,1.613-2.415,2.408a0.576,0.576,0,0,0-.21.619c0.1,0.4.15,0.819,0.221,1.233a0.228,0.228,0,0,0,.063-0.022q1.374-1.37,2.745-2.744a0.208,0.208,0,0,0,.055-0.154C19.091,4.27,19,3.773,18.91,3.244Zm2.858,2.845C21.259,6,20.8,5.931,20.335,5.84a0.322,0.322,0,0,0-.332.1q-1.279,1.291-2.568,2.573c-0.045.045-.085,0.1-0.151,0.17,0.533,0.091,1.031.181,1.532,0.255a0.311,0.311,0,0,0,.2-0.108c0.358-.35.711-0.707,1.065-1.061Z"/>
</svg>
