<svg xmlns="http://www.w3.org/2000/svg" width="42" height="42" viewBox="0 0 42 42">
  <metadata><?xpacket begin="﻿" id="W5M0MpCehiHzreSzNTczkc9d"?>
<x:xmpmeta xmlns:x="adobe:ns:meta/" x:xmptk="Adobe XMP Core 5.6-c140 79.160451, 2017/05/06-01:08:21        ">
   <rdf:RDF xmlns:rdf="http://www.w3.org/1999/02/22-rdf-syntax-ns#">
      <rdf:Description rdf:about=""/>
   </rdf:RDF>
</x:xmpmeta>
                                                                                                    
                                                                                                    
                                                                                                    
                                                                                                    
                                                                                                    
                                                                                                    
                                                                                                    
                                                                                                    
                                                                                                    
                                                                                                    
                                                                                                    
                                                                                                    
                                                                                                    
                                                                                                    
                                                                                                    
                                                                                                    
                                                                                                    
                                                                                                    
                                                                                                    
                                                                                                    
                           
<?xpacket end="w"?></metadata>
<defs>
    <style>
      .cls-1 {
        fill: #666;
        fill-rule: evenodd;
      }
    </style>
  </defs>
  <path class="cls-1" d="M31.241,41H20.2a6.85,6.85,0,0,1-4.872-2.051L4,26l2.512-2.791a3.4,3.4,0,0,1,3.81-.45L16,25V11c0-2.3-.277-5.934,3-6,0.287-.006,1.713-0.05,2,0,0.152-2.168.775-4,3-4a3.6,3.6,0,0,1,3.128,1.818,4.234,4.234,0,0,1,5.8,3.868V7.153a4.651,4.651,0,0,1,.843-0.083,4.193,4.193,0,0,1,4.214,4.168V34.33A6.7,6.7,0,0,1,31.241,41ZM7,26L17,37c0.64,0.65,2.09,2,3,2H32a4.579,4.579,0,0,0,4-4V12c0-.467.212-3.08-2-3-1.123.041-1,2.533-1,3v9H31V7c0-.467-0.078-2.063-1-2-0.471.032-2.162-.381-2,2V21H26V6c-0.293-1.745.207-2.184-2-2-1.446.12-1,3.533-1,4V21H21V9c0-.467.4-1.9-2-2-1.314-.054-1,2.55-1,3V29L9,25Z"/>
</svg>
