<svg xmlns="http://www.w3.org/2000/svg" width="24" height="24" viewBox="0 0 24 24">
  <metadata><?xpacket begin="﻿" id="W5M0MpCehiHzreSzNTczkc9d"?>
<x:xmpmeta xmlns:x="adobe:ns:meta/" x:xmptk="Adobe XMP Core 5.6-c140 79.160451, 2017/05/06-01:08:21        ">
   <rdf:RDF xmlns:rdf="http://www.w3.org/1999/02/22-rdf-syntax-ns#">
      <rdf:Description rdf:about=""/>
   </rdf:RDF>
</x:xmpmeta>
                                                                                                    
                                                                                                    
                                                                                                    
                                                                                                    
                                                                                                    
                                                                                                    
                                                                                                    
                                                                                                    
                                                                                                    
                                                                                                    
                                                                                                    
                                                                                                    
                                                                                                    
                                                                                                    
                                                                                                    
                                                                                                    
                                                                                                    
                                                                                                    
                                                                                                    
                                                                                                    
                           
<?xpacket end="w"?></metadata>
<defs>
    <style>
      .cls-1 {
        fill: #aaa;
        fill-rule: evenodd;
      }
    </style>
  </defs>
  <path class="cls-1" d="M17,8V6H3V20h9v2H3a2.6,2.6,0,0,1-.4-0.03,2.008,2.008,0,0,1-1.01-.55,2.119,2.119,0,0,1-.43-0.64A2.051,2.051,0,0,1,1,20V6a1.926,1.926,0,0,1,.16-0.77A2.02,2.02,0,0,1,2.6,4.04,1.75,1.75,0,0,1,3,4H7.18a2.988,2.988,0,0,1,5.64,0H17a2.006,2.006,0,0,1,2,2V8H17ZM10,3.75a0.75,0.75,0,1,0,.75.75A0.755,0.755,0,0,0,10,3.75ZM5,8v2h7V8H5ZM5,18V16H8v2H5Zm0-6h7v2H5V12Zm16.75,2.333H21.125V13.1a3.125,3.125,0,0,0-6.25,0v1.238H14.25A1.248,1.248,0,0,0,13,15.571v6.191A1.248,1.248,0,0,0,14.25,23h7.5A1.248,1.248,0,0,0,23,21.762v-6.19A1.248,1.248,0,0,0,21.75,14.333ZM18,19.9a1.238,1.238,0,1,1,1.25-1.238A1.248,1.248,0,0,1,18,19.9Zm1.938-5.571H16.063V13.1a1.938,1.938,0,0,1,3.875,0v1.238Z"/>
</svg>
