<svg xmlns="http://www.w3.org/2000/svg" width="24" height="24" viewBox="0 0 22 22">
  <metadata><?xpacket begin="﻿" id="W5M0MpCehiHzreSzNTczkc9d"?>
<x:xmpmeta xmlns:x="adobe:ns:meta/" x:xmptk="Adobe XMP Core 5.6-c140 79.160451, 2017/05/06-01:08:21        ">
   <rdf:RDF xmlns:rdf="http://www.w3.org/1999/02/22-rdf-syntax-ns#">
      <rdf:Description rdf:about=""/>
   </rdf:RDF>
</x:xmpmeta>
                                                                                                    
                                                                                                    
                                                                                                    
                                                                                                    
                                                                                                    
                                                                                                    
                                                                                                    
                                                                                                    
                                                                                                    
                                                                                                    
                                                                                                    
                                                                                                    
                                                                                                    
                                                                                                    
                                                                                                    
                                                                                                    
                                                                                                    
                                                                                                    
                                                                                                    
                                                                                                    
                           
<?xpacket end="w"?></metadata>
<defs>
    <style>
      .cls-1 {
        fill: #aaa;
        fill-rule: evenodd;
      }
    </style>
  </defs>
  <path class="cls-1" d="M4.317,6.675c-0.013.033-.024,0.067-0.036,0.1C4.293,6.741,4.3,6.708,4.317,6.675ZM4.281,9.864C4.293,9.9,4.3,9.93,4.317,9.962,4.3,9.929,4.293,9.9,4.281,9.864ZM4.5,6.289c-0.023.043-.042,0.088-0.064,0.133C4.457,6.375,4.476,6.33,4.5,6.289ZM4.161,9.506c0.005,0.017.008,0.033,0.013,0.051C4.169,9.54,4.166,9.523,4.161,9.506ZM7.129,4.162l-0.051.013Zm2.83,0.156C9.925,4.3,9.892,4.294,9.861,4.282,9.894,4.294,9.926,4.3,9.959,4.318ZM4.174,7.08c0,0.017-.008.033-0.013,0.051C4.166,7.114,4.169,7.1,4.174,7.08ZM6.417,4.437C6.373,4.458,6.328,4.477,6.284,4.5,6.329,4.477,6.373,4.459,6.417,4.437Zm-0.35.193c-0.05.03-.1,0.058-0.149,0.09C5.967,4.687,6.017,4.658,6.067,4.629Zm-0.358.244c-0.044.033-.09,0.065-0.133,0.1C5.619,4.938,5.665,4.907,5.709,4.873Zm-0.738.7c-0.033.043-.066,0.089-0.1,0.133C4.906,5.666,4.936,5.621,4.971,5.577Zm1.8-1.3C6.738,4.294,6.7,4.3,6.674,4.318,6.706,4.3,6.739,4.294,6.771,4.282ZM4.718,5.92c-0.033.048-.06,0.1-0.09,0.149C4.657,6.019,4.686,5.968,4.718,5.92ZM9.555,4.175L9.5,4.162Zm1.5,0.8c-0.043-.035-0.089-0.066-0.133-0.1C10.968,4.907,11.013,4.938,11.057,4.973ZM4.872,10.927c0.033,0.044.064,0.09,0.1,0.133C4.936,11.016,4.906,10.971,4.872,10.927ZM10.714,4.72c-0.048-.033-0.1-0.06-0.148-0.09C10.616,4.658,10.666,4.687,10.714,4.72ZM10.345,4.5c-0.043-.023-0.088-0.042-0.133-0.064C10.259,4.459,10.3,4.477,10.345,4.5Zm-5.91,5.718c0.022,0.044.041,0.089,0.064,0.133C4.476,10.307,4.457,10.262,4.436,10.218Zm0.193,0.351c0.03,0.049.058,0.1,0.09,0.148C4.686,10.669,4.657,10.618,4.629,10.569Zm-4.3-3.582H1.379A0.989,0.989,0,0,0,2.32,6.315,6.284,6.284,0,0,1,2.659,5.5a0.991,0.991,0,0,0-.188-1.143L1.73,3.613a0.333,0.333,0,0,1,0-.47L3.141,1.73a0.333,0.333,0,0,1,.47,0L4.355,2.472A0.991,0.991,0,0,0,5.5,2.66a6.251,6.251,0,0,1,.816-0.339,0.99,0.99,0,0,0,.672-0.942V0.333A0.333,0.333,0,0,1,7.318,0h2a0.333,0.333,0,0,1,.333.333V1.379a0.99,0.99,0,0,0,.672.941,6.272,6.272,0,0,1,.815.339,0.989,0.989,0,0,0,1.143-.188l0.743-.742a0.332,0.332,0,0,1,.47,0L14.9,3.142a0.333,0.333,0,0,1,0,.47L12.53,5.989H11.957a4.33,4.33,0,0,0-.584-0.732,4.241,4.241,0,0,0-.317-0.287c-0.043-.035-0.089-0.067-0.133-0.1-0.069-.053-0.137-0.106-0.21-0.154-0.049-.033-0.1-0.06-0.148-0.09-0.073-.044-0.144-0.09-0.219-0.129-0.043-.023-0.088-0.042-0.133-0.064-0.084-.042-0.169-0.083-0.256-0.119C9.924,4.3,9.891,4.291,9.859,4.279c-0.1-.038-0.2-0.076-0.307-0.107L9.5,4.159a4.257,4.257,0,0,0-2.375,0l-0.051.013C6.972,4.2,6.87,4.24,6.77,4.279,6.736,4.291,6.7,4.3,6.672,4.315,6.584,4.351,6.5,4.392,6.416,4.434c-0.044.022-.088,0.04-0.133,0.064-0.075.04-.146,0.085-0.219,0.129-0.05.03-.1,0.058-0.149,0.09-0.072.048-.141,0.1-0.209,0.154-0.044.033-.09,0.064-0.133,0.1a4.293,4.293,0,0,0-.6.6c-0.035.043-.067,0.089-0.1,0.133-0.052.069-.106,0.137-0.154,0.209-0.033.049-.06,0.1-0.09,0.149C4.581,6.138,4.536,6.209,4.5,6.284c-0.023.043-.042,0.088-0.063,0.133C4.391,6.5,4.349,6.586,4.313,6.674,4.3,6.707,4.29,6.74,4.278,6.772c-0.039.1-.076,0.2-0.107,0.306C4.166,7.1,4.163,7.111,4.158,7.129a4.26,4.26,0,0,0,0,2.376c0.005,0.017.008,0.033,0.013,0.051,0.031,0.1.066,0.206,0.107,0.307C4.29,9.9,4.3,9.929,4.313,9.96c0.036,0.087.077,0.172,0.119,0.257,0.022,0.044.04,0.089,0.063,0.133,0.04,0.075.085,0.147,0.129,0.219,0.03,0.049.058,0.1,0.09,0.148,0.048,0.072.1,0.14,0.154,0.21,0.033,0.044.064,0.09,0.1,0.133a4.234,4.234,0,0,0,.287.317,4.33,4.33,0,0,0,.732.584c0,0.006,0,.012,0,0.018v0.554L3.612,14.907a0.332,0.332,0,0,1-.47,0L1.73,13.495a0.333,0.333,0,0,1,0-.471l0.742-.743a0.991,0.991,0,0,0,.188-1.143,6.252,6.252,0,0,1-.339-0.816,0.99,0.99,0,0,0-.941-0.672H0.333A0.333,0.333,0,0,1,0,9.317v-2A0.333,0.333,0,0,1,.333,6.988Zm6.341-2.67C6.587,4.354,6.5,4.4,6.417,4.437,6.5,4.4,6.586,4.354,6.674,4.318ZM6.285,4.5c-0.075.04-.146,0.085-0.219,0.129C6.139,4.585,6.21,4.54,6.285,4.5Zm3.576-.218c-0.1-.039-0.2-0.076-0.306-0.107C9.659,4.206,9.76,4.243,9.861,4.282ZM7.078,4.175c-0.1.031-.2,0.068-0.306,0.107C6.872,4.243,6.974,4.206,7.078,4.175ZM10.566,4.63c-0.073-.044-0.145-0.09-0.219-0.13C10.422,4.54,10.494,4.585,10.566,4.63Zm0.357,0.244c-0.069-.053-0.138-0.106-0.21-0.154C10.786,4.768,10.855,4.821,10.924,4.874Zm-0.709-.437c-0.085-.041-0.17-0.083-0.256-0.119C10.046,4.354,10.131,4.4,10.215,4.437ZM11.374,5.26c-0.1-.1-0.208-0.2-0.317-0.287A4.207,4.207,0,0,1,11.374,5.26ZM4.718,10.717c0.048,0.072.1,0.14,0.154,0.21C4.82,10.858,4.767,10.789,4.718,10.717Zm-0.4-.756c0.036,0.087.078,0.172,0.119,0.257C4.394,10.134,4.353,10.049,4.317,9.962ZM4.5,10.348c0.04,0.075.085,0.147,0.129,0.219C4.584,10.5,4.539,10.425,4.5,10.348ZM5.918,4.72c-0.071.048-.14,0.1-0.209,0.154C5.778,4.821,5.846,4.768,5.918,4.72ZM4.161,9.506a4.259,4.259,0,0,1,0-2.376A4.36,4.36,0,0,0,4.161,9.506ZM7.129,4.162a4.257,4.257,0,0,1,2.375,0A4.356,4.356,0,0,0,7.129,4.162Zm-2.157,6.9c0.09,0.109.185,0.216,0.287,0.317A4.216,4.216,0,0,1,4.971,11.06Zm0.287-5.8c-0.1.1-.2,0.208-0.287,0.317A4.209,4.209,0,0,1,5.259,5.26Zm-0.387.451C4.82,5.78,4.766,5.848,4.718,5.92,4.767,5.848,4.82,5.779,4.872,5.711Zm0.7-.738c-0.109.09-.216,0.185-0.317,0.287A4.214,4.214,0,0,1,5.576,4.973Zm-1.3,1.8c-0.039.1-.076,0.2-0.107,0.306C4.205,6.976,4.242,6.874,4.281,6.773Zm0.347-.7C4.584,6.141,4.539,6.213,4.5,6.287,4.539,6.212,4.584,6.141,4.628,6.068ZM4.174,9.557c0.031,0.1.067,0.2,0.107,0.306C4.242,9.763,4.205,9.661,4.174,9.557ZM4.436,6.419c-0.041.085-.083,0.17-0.119,0.257C4.353,6.588,4.394,6.5,4.436,6.419Zm10.935,4.587H13.622v2.624H11v1.749h2.624V18h1.749V15.378h2.624V13.629H15.371V11.006ZM14.5,7.012A7.494,7.494,0,1,0,22,14.486,7.476,7.476,0,0,0,14.5,7.012Zm0,13.239a5.743,5.743,0,1,1,5.746-5.743A5.752,5.752,0,0,1,14.5,20.25Z"/>
</svg>
