<svg xmlns="http://www.w3.org/2000/svg" viewBox="0 0 30 30"><defs><style>.cls-1{fill:#fff;}</style></defs><title>Asset 1</title><g id="Layer_2" data-name="Layer 2"><g id="Layer_1-2" data-name="Layer 1"><path class="cls-1" d="M15,0A15,15,0,1,0,30,15,15,15,0,0,0,15,0Zm0,28A13,13,0,1,1,28,15,13,13,0,0,1,15,28Z"/><path class="cls-1" d="M17.5,8.6h-.3l-.5,1.3H17a5.6,5.6,0,0,1,1.9,9.2,5.38,5.38,0,0,1-3.8,1.5h-.2A5.49,5.49,0,0,1,9.7,17,5.6,5.6,0,0,1,13,9.9h.3l-.5-1.3h-.3a7.23,7.23,0,0,0-3.2,2.5,6.41,6.41,0,0,0-1.3,4v.1A6.9,6.9,0,0,0,15,22h.1A6.9,6.9,0,0,0,22,15.1a6.41,6.41,0,0,0-1.3-4A7.23,7.23,0,0,0,17.5,8.6Z"/><rect class="cls-1" x="14.3" y="8" width="1.4" height="8.2"/></g></g></svg>
