<svg xmlns="http://www.w3.org/2000/svg" width="30" height="30" viewBox="0 0 30 30">
  <title>Asset 1</title>
  <g id="Layer_2" data-name="Layer 2">
    <g id="Layer_1-2" data-name="Layer 1">
      <g>
        <circle cx="15" cy="15" r="15" fill="#fff"/>
        <circle cx="15" cy="15" r="13" fill="#d0021b"/>
        <g id="_" data-name=" " style="isolation: isolate">
          <g style="isolation: isolate">
            <path d="M15,21.7a1.7,1.7,0,0,1-1.3-.5,1.6,1.6,0,0,1-.5-1.1,1.7,1.7,0,0,1,.5-1.2,2,2,0,0,1,1.3-.4,1.8,1.8,0,0,1,1.3.4,1.8,1.8,0,0,1,.5,1.2,1.7,1.7,0,0,1-.5,1.2A1.8,1.8,0,0,1,15,21.7ZM16.6,7.5l-.4,9.6H13.7l-.3-9.6Z" fill="#fff"/>
          </g>
        </g>
      </g>
    </g>
  </g>
</svg>
