<svg xmlns="http://www.w3.org/2000/svg" width="20" height="20" viewBox="0 0 20 20">
  <metadata><?xpacket begin="﻿" id="W5M0MpCehiHzreSzNTczkc9d"?>
<x:xmpmeta xmlns:x="adobe:ns:meta/" x:xmptk="Adobe XMP Core 5.6-c140 79.160451, 2017/05/06-01:08:21        ">
   <rdf:RDF xmlns:rdf="http://www.w3.org/1999/02/22-rdf-syntax-ns#">
      <rdf:Description rdf:about=""/>
   </rdf:RDF>
</x:xmpmeta>
                                                                                                    
                                                                                                    
                                                                                                    
                                                                                                    
                                                                                                    
                                                                                                    
                                                                                                    
                                                                                                    
                                                                                                    
                                                                                                    
                                                                                                    
                                                                                                    
                                                                                                    
                                                                                                    
                                                                                                    
                                                                                                    
                                                                                                    
                                                                                                    
                                                                                                    
                                                                                                    
                           
<?xpacket end="w"?></metadata>
<defs>
    <style>
      .cls-1 {
        fill: #fff;
        fill-rule: evenodd;
      }
    </style>
  </defs>
  <path class="cls-1" d="M4.818,8.417a1.809,1.809,0,0,1,1.514.509l1,0.994,0.947-.936L6.911,7.63a0.54,0.54,0,0,1,0-.766,0.549,0.549,0,0,1,.771,0L9.05,8.222,10,7.286l-1-1a1.787,1.787,0,0,1-.513-1.5A4.213,4.213,0,0,0,7.269,1.239,4.268,4.268,0,0,0,3.629.046a0.252,0.252,0,0,0-.142.427l1.288,1.28a1.545,1.545,0,0,1,0,2.2l-0.792.787a1.57,1.57,0,0,1-2.214,0L0.477,3.459A0.255,0.255,0,0,0,.047,3.6a4.2,4.2,0,0,0,1.2,3.616A4.276,4.276,0,0,0,4.818,8.417ZM12.832,10.1l-0.947.936,5.621,5.583a0.54,0.54,0,0,1,0,.766,0.549,0.549,0,0,1-.771,0l-5.621-5.583-0.947.936,5.792,5.753a1.886,1.886,0,0,0,2.656,0,1.86,1.86,0,0,0,0-2.638ZM15,6.375h2.5L20,1.417,18.753,0.179l-5,2.477V5.137L6.969,11.859,5.747,10.65,0.827,15.537a2.593,2.593,0,0,0,0,3.686,2.635,2.635,0,0,0,3.711,0l4.92-4.887L8.212,13.1Z"/>
</svg>
